<svg xmlns="http://www.w3.org/2000/svg" viewBox="0 0 64 64" fill="none">
  <!-- Shield body -->
  <path d="M32 4 L56 16 V34 C56 48 44 58 32 62 C20 58 8 48 8 34 V16 Z"
        fill="#030712" stroke="#22c55e" stroke-width="2.5"/>
  <!-- Inner glow line -->
  <path d="M32 8 L52 18 V34 C52 46 42 54 32 58 C22 54 12 46 12 34 V18 Z"
        fill="none" stroke="#22c55e" stroke-width="0.5" opacity="0.3"/>
  <!-- Central supervisor node -->
  <circle cx="32" cy="24" r="6" fill="#030712" stroke="#22c55e" stroke-width="1.5"/>
  <circle cx="32" cy="24" r="3" fill="#22c55e" opacity="0.6"/>
  <!-- Worker nodes -->
  <circle cx="20" cy="40" r="4" fill="#030712" stroke="#22c55e" stroke-width="1.2"/>
  <circle cx="20" cy="40" r="2" fill="#22c55e" opacity="0.4"/>
  <circle cx="32" cy="44" r="4" fill="#030712" stroke="#22c55e" stroke-width="1.2"/>
  <circle cx="32" cy="44" r="2" fill="#22c55e" opacity="0.4"/>
  <circle cx="44" cy="40" r="4" fill="#030712" stroke="#22c55e" stroke-width="1.2"/>
  <circle cx="44" cy="40" r="2" fill="#22c55e" opacity="0.4"/>
  <!-- Connection lines supervisor → workers -->
  <line x1="32" y1="30" x2="20" y2="36" stroke="#22c55e" stroke-width="1" opacity="0.5"/>
  <line x1="32" y1="30" x2="32" y2="40" stroke="#22c55e" stroke-width="1" opacity="0.5"/>
  <line x1="32" y1="30" x2="44" y2="36" stroke="#22c55e" stroke-width="1" opacity="0.5"/>
</svg>
